<mxfile host="app.diagrams.net" modified="2021-08-08T06:45:56.537Z" agent="5.0 (Macintosh; Intel Mac OS X 10_15_7) AppleWebKit/537.36 (KHTML, like Gecko) Chrome/92.0.4515.131 Safari/537.36" etag="Vq0IceG8t2e5osgIf7tR" version="14.3.2" type="github">
  <diagram id="2DXmei2vmNoE15mc74iW" name="Page-1">
    <mxGraphModel dx="2703" dy="1611" grid="1" gridSize="10" guides="1" tooltips="1" connect="1" arrows="1" fold="1" page="1" pageScale="1" pageWidth="1654" pageHeight="1169" math="0" shadow="0">
      <root>
        <mxCell id="0" />
        <mxCell id="1" parent="0" />
        <mxCell id="YdAV8V6hrdrq-AZrDYcK-1" value="공정거래위원회" style="ellipse;whiteSpace=wrap;html=1;fontSize=35;fillColor=#f5f5f5;strokeColor=#666666;fontColor=#333333;" vertex="1" parent="1">
          <mxGeometry x="100" y="240" width="220" height="110" as="geometry" />
        </mxCell>
        <mxCell id="YdAV8V6hrdrq-AZrDYcK-2" value="Proxy" style="ellipse;whiteSpace=wrap;html=1;fontSize=50;fillColor=#f5f5f5;strokeColor=#666666;fontColor=#333333;" vertex="1" parent="1">
          <mxGeometry x="650" y="30" width="220" height="110" as="geometry" />
        </mxCell>
        <mxCell id="YdAV8V6hrdrq-AZrDYcK-3" value="Proxy" style="ellipse;whiteSpace=wrap;html=1;fontSize=50;fillColor=#f5f5f5;strokeColor=#666666;fontColor=#333333;" vertex="1" parent="1">
          <mxGeometry x="650" y="240" width="220" height="110" as="geometry" />
        </mxCell>
        <mxCell id="YdAV8V6hrdrq-AZrDYcK-4" value="Proxy" style="ellipse;whiteSpace=wrap;html=1;fontSize=50;fillColor=#f5f5f5;strokeColor=#666666;fontColor=#333333;" vertex="1" parent="1">
          <mxGeometry x="650" y="450" width="220" height="110" as="geometry" />
        </mxCell>
        <mxCell id="YdAV8V6hrdrq-AZrDYcK-5" value="Server" style="ellipse;whiteSpace=wrap;html=1;fontSize=50;fillColor=#f5f5f5;strokeColor=#666666;fontColor=#333333;" vertex="1" parent="1">
          <mxGeometry x="1200" y="240" width="220" height="110" as="geometry" />
        </mxCell>
        <mxCell id="YdAV8V6hrdrq-AZrDYcK-6" value="&lt;p style=&quot;line-height: 50%&quot;&gt;.&lt;br&gt;.&lt;br&gt;.&lt;br&gt;&lt;/p&gt;" style="text;html=1;strokeColor=none;fillColor=none;align=center;verticalAlign=middle;whiteSpace=wrap;rounded=0;fontSize=50;" vertex="1" parent="1">
          <mxGeometry x="740" y="380" width="40" height="20" as="geometry" />
        </mxCell>
        <mxCell id="YdAV8V6hrdrq-AZrDYcK-7" value="&lt;p style=&quot;line-height: 50%&quot;&gt;.&lt;br&gt;.&lt;br&gt;.&lt;br&gt;&lt;/p&gt;" style="text;html=1;strokeColor=none;fillColor=none;align=center;verticalAlign=middle;whiteSpace=wrap;rounded=0;fontSize=50;" vertex="1" parent="1">
          <mxGeometry x="740" y="160" width="40" height="20" as="geometry" />
        </mxCell>
        <mxCell id="YdAV8V6hrdrq-AZrDYcK-8" value="" style="shape=flexArrow;endArrow=classic;html=1;fontSize=50;fillColor=#1ba1e2;strokeColor=#006EAF;" edge="1" parent="1">
          <mxGeometry width="50" height="50" relative="1" as="geometry">
            <mxPoint x="1190" y="270" as="sourcePoint" />
            <mxPoint x="890" y="270" as="targetPoint" />
          </mxGeometry>
        </mxCell>
        <mxCell id="YdAV8V6hrdrq-AZrDYcK-9" value="" style="shape=flexArrow;endArrow=classic;html=1;fontSize=50;fillColor=#1ba1e2;strokeColor=#006EAF;" edge="1" parent="1">
          <mxGeometry width="50" height="50" relative="1" as="geometry">
            <mxPoint x="620" y="270" as="sourcePoint" />
            <mxPoint x="330" y="270" as="targetPoint" />
          </mxGeometry>
        </mxCell>
        <mxCell id="YdAV8V6hrdrq-AZrDYcK-10" value="" style="shape=flexArrow;endArrow=classic;html=1;fontSize=50;fillColor=#1ba1e2;strokeColor=#006EAF;" edge="1" parent="1">
          <mxGeometry width="50" height="50" relative="1" as="geometry">
            <mxPoint x="900" y="310" as="sourcePoint" />
            <mxPoint x="1190" y="310" as="targetPoint" />
          </mxGeometry>
        </mxCell>
        <mxCell id="YdAV8V6hrdrq-AZrDYcK-11" value="" style="shape=flexArrow;endArrow=classic;html=1;fontSize=50;fillColor=#1ba1e2;strokeColor=#006EAF;" edge="1" parent="1">
          <mxGeometry width="50" height="50" relative="1" as="geometry">
            <mxPoint x="340" y="310" as="sourcePoint" />
            <mxPoint x="620" y="310" as="targetPoint" />
          </mxGeometry>
        </mxCell>
        <mxCell id="YdAV8V6hrdrq-AZrDYcK-12" value="&lt;span style=&quot;font-family: , sans-serif ; background-color: rgb(255 , 255 , 255)&quot;&gt;&lt;font style=&quot;font-size: 25px&quot;&gt;①&lt;/font&gt;&lt;/span&gt;스크래핑request" style="text;html=1;strokeColor=none;fillColor=none;align=center;verticalAlign=middle;whiteSpace=wrap;rounded=0;fontSize=25;" vertex="1" parent="1">
          <mxGeometry x="920" y="240" width="230" height="20" as="geometry" />
        </mxCell>
        <mxCell id="YdAV8V6hrdrq-AZrDYcK-13" value="&lt;span style=&quot;font-family: , sans-serif ; background-color: rgb(255 , 255 , 255)&quot;&gt;&lt;font style=&quot;font-size: 25px&quot;&gt;②IP우회 후&amp;nbsp;&lt;/font&gt;&lt;/span&gt;request" style="text;html=1;strokeColor=none;fillColor=none;align=center;verticalAlign=middle;whiteSpace=wrap;rounded=0;fontSize=25;" vertex="1" parent="1">
          <mxGeometry x="370" y="240" width="230" height="20" as="geometry" />
        </mxCell>
        <mxCell id="YdAV8V6hrdrq-AZrDYcK-15" value="&lt;span style=&quot;font-family: , sans-serif ; background-color: rgb(255 , 255 , 255)&quot;&gt;&lt;font style=&quot;font-size: 25px&quot;&gt;③&lt;/font&gt;&lt;/span&gt;&lt;span style=&quot;background-color: rgb(255 , 255 , 255)&quot;&gt;스크래핑 response&lt;/span&gt;" style="text;html=1;strokeColor=none;fillColor=none;align=center;verticalAlign=middle;whiteSpace=wrap;rounded=0;fontSize=25;" vertex="1" parent="1">
          <mxGeometry x="370" y="320" width="230" height="20" as="geometry" />
        </mxCell>
        <mxCell id="YdAV8V6hrdrq-AZrDYcK-16" value="&lt;span style=&quot;font-family: , sans-serif ; background-color: rgb(255 , 255 , 255)&quot;&gt;&lt;font style=&quot;font-size: 25px&quot;&gt;④&lt;/font&gt;&lt;/span&gt;&lt;span style=&quot;background-color: rgb(255 , 255 , 255)&quot;&gt;스크래핑 response&lt;/span&gt;" style="text;html=1;strokeColor=none;fillColor=none;align=center;verticalAlign=middle;whiteSpace=wrap;rounded=0;fontSize=25;" vertex="1" parent="1">
          <mxGeometry x="920" y="320" width="230" height="20" as="geometry" />
        </mxCell>
        <mxCell id="YdAV8V6hrdrq-AZrDYcK-17" value="" style="rounded=0;whiteSpace=wrap;html=1;fontSize=35;fillColor=none;" vertex="1" parent="1">
          <mxGeometry x="630" y="20" width="250" height="550" as="geometry" />
        </mxCell>
        <mxCell id="YdAV8V6hrdrq-AZrDYcK-18" value="Proxy 순환을 이용하여IP차단 방지" style="text;html=1;strokeColor=none;fillColor=none;align=left;verticalAlign=middle;whiteSpace=wrap;rounded=0;fontSize=20;" vertex="1" parent="1">
          <mxGeometry x="630" y="580" width="470" height="20" as="geometry" />
        </mxCell>
        <mxCell id="YdAV8V6hrdrq-AZrDYcK-21" value="" style="edgeStyle=orthogonalEdgeStyle;rounded=0;orthogonalLoop=1;jettySize=auto;html=1;fontSize=12;" edge="1" parent="1" source="YdAV8V6hrdrq-AZrDYcK-19" target="YdAV8V6hrdrq-AZrDYcK-20">
          <mxGeometry relative="1" as="geometry" />
        </mxCell>
        <mxCell id="YdAV8V6hrdrq-AZrDYcK-19" value="전화번호&lt;br style=&quot;font-size: 12px&quot;&gt;전자우편&lt;br style=&quot;font-size: 12px&quot;&gt;사업장소재지&lt;br style=&quot;font-size: 12px&quot;&gt;사업장소재지(도로명)&lt;br style=&quot;font-size: 12px&quot;&gt;&lt;b&gt;마스킹 여부 확인&lt;/b&gt;" style="rounded=0;whiteSpace=wrap;html=1;fontSize=12;align=center;" vertex="1" parent="1">
          <mxGeometry x="1240" y="390" width="140" height="80" as="geometry" />
        </mxCell>
        <mxCell id="YdAV8V6hrdrq-AZrDYcK-23" value="N" style="edgeStyle=orthogonalEdgeStyle;rounded=0;orthogonalLoop=1;jettySize=auto;html=1;fontSize=12;" edge="1" parent="1" source="YdAV8V6hrdrq-AZrDYcK-20" target="YdAV8V6hrdrq-AZrDYcK-22">
          <mxGeometry relative="1" as="geometry" />
        </mxCell>
        <mxCell id="YdAV8V6hrdrq-AZrDYcK-20" value="마스킹 여부" style="rhombus;whiteSpace=wrap;html=1;fillColor=#ffffff;fontSize=12;align=center;" vertex="1" parent="1">
          <mxGeometry x="1270" y="510" width="80" height="80" as="geometry" />
        </mxCell>
        <mxCell id="YdAV8V6hrdrq-AZrDYcK-26" value="" style="edgeStyle=orthogonalEdgeStyle;rounded=0;orthogonalLoop=1;jettySize=auto;html=1;fontSize=12;" edge="1" parent="1" source="YdAV8V6hrdrq-AZrDYcK-22" target="YdAV8V6hrdrq-AZrDYcK-25">
          <mxGeometry relative="1" as="geometry" />
        </mxCell>
        <mxCell id="YdAV8V6hrdrq-AZrDYcK-22" value="통신판매사업자" style="shape=cylinder3;whiteSpace=wrap;html=1;boundedLbl=1;backgroundOutline=1;size=15;fillColor=#d5e8d4;strokeColor=#82b366;" vertex="1" parent="1">
          <mxGeometry x="1260" y="630" width="100" height="80" as="geometry" />
        </mxCell>
        <mxCell id="YdAV8V6hrdrq-AZrDYcK-28" value="" style="edgeStyle=orthogonalEdgeStyle;rounded=0;orthogonalLoop=1;jettySize=auto;html=1;fontSize=12;" edge="1" parent="1" source="YdAV8V6hrdrq-AZrDYcK-25" target="YdAV8V6hrdrq-AZrDYcK-27">
          <mxGeometry relative="1" as="geometry" />
        </mxCell>
        <mxCell id="YdAV8V6hrdrq-AZrDYcK-25" value="통신판매사업장" style="shape=cylinder3;whiteSpace=wrap;html=1;boundedLbl=1;backgroundOutline=1;size=15;fillColor=#d5e8d4;strokeColor=#82b366;" vertex="1" parent="1">
          <mxGeometry x="1260" y="747" width="100" height="80" as="geometry" />
        </mxCell>
        <mxCell id="YdAV8V6hrdrq-AZrDYcK-30" value="" style="edgeStyle=orthogonalEdgeStyle;rounded=0;orthogonalLoop=1;jettySize=auto;html=1;fontSize=12;" edge="1" parent="1" source="YdAV8V6hrdrq-AZrDYcK-27" target="YdAV8V6hrdrq-AZrDYcK-29">
          <mxGeometry relative="1" as="geometry" />
        </mxCell>
        <mxCell id="YdAV8V6hrdrq-AZrDYcK-27" value="변경내역" style="shape=cylinder3;whiteSpace=wrap;html=1;boundedLbl=1;backgroundOutline=1;size=15;fillColor=#d5e8d4;strokeColor=#82b366;" vertex="1" parent="1">
          <mxGeometry x="1260" y="860" width="100" height="80" as="geometry" />
        </mxCell>
        <mxCell id="YdAV8V6hrdrq-AZrDYcK-29" value="END" style="ellipse;whiteSpace=wrap;html=1;fillColor=#ffffff;fontSize=12;align=center;" vertex="1" parent="1">
          <mxGeometry x="1250" y="970" width="120" height="80" as="geometry" />
        </mxCell>
        <mxCell id="YdAV8V6hrdrq-AZrDYcK-31" value="" style="endArrow=classic;html=1;fontSize=12;exitX=1;exitY=0.5;exitDx=0;exitDy=0;entryX=1;entryY=0.5;entryDx=0;entryDy=0;rounded=0;" edge="1" parent="1" source="YdAV8V6hrdrq-AZrDYcK-20" target="YdAV8V6hrdrq-AZrDYcK-29">
          <mxGeometry width="50" height="50" relative="1" as="geometry">
            <mxPoint x="1110" y="810" as="sourcePoint" />
            <mxPoint x="1160" y="760" as="targetPoint" />
            <Array as="points">
              <mxPoint x="1400" y="550" />
              <mxPoint x="1400" y="1010" />
            </Array>
          </mxGeometry>
        </mxCell>
        <mxCell id="YdAV8V6hrdrq-AZrDYcK-32" value="Y" style="edgeLabel;html=1;align=center;verticalAlign=middle;resizable=0;points=[];fontSize=12;" vertex="1" connectable="0" parent="YdAV8V6hrdrq-AZrDYcK-31">
          <mxGeometry x="-0.9481" y="-1" relative="1" as="geometry">
            <mxPoint as="offset" />
          </mxGeometry>
        </mxCell>
      </root>
    </mxGraphModel>
  </diagram>
</mxfile>
